# xmcd
#
# Track frame offsets: 
#        150
#        20146
#        32725
#        58584
#        75314
#        91638
#        108960
#        125025
#        149456
#        167398
#        178910
#        209949
#        221084
#        236078
#        258646
#        277515
#
# Disc length: 3920 seconds
#
# Revision: 0
# Processed by: cddbd v1.5.1PL0 Copyright (c) Steve Scherf et al.
# Submitted via: ExactAudioCopy v0.95a5
#
DISCID=e60f4e10
DTITLE=Detroit Jr - Blues On The Internet
DYEAR=2004
DGENRE=Blues
TTITLE0=Call My Job
TTITLE1=Hot Pants Baby
TTITLE2=Weak Spots
TTITLE3=Money Crazy
TTITLE4=Less Violence, More Love
TTITLE5=Love No One But You
TTITLE6=Rockin' After Midnight
TTITLE7=Somebody Better Do Something
TTITLE8=Just You My Love
TTITLE9=When It Comes To Your Love
TTITLE10=Blues On The Internet
TTITLE11=Messin' With The Kid
TTITLE12=Which One Of Us You Want To Please
TTITLE13=Man Around The House
TTITLE14=Party All Night Long
TTITLE15=Interview
EXTD=Featuring - Lurrie Bell - Maurice John Vaughn - Jimmy Dawkins - B
EXTD=ob Stronger - Kenny Smith\n\nThere's also a video clip - not avai
EXTD=lable on pirate versions like this\n\n
EXTT0=
EXTT1=
EXTT2=
EXTT3=
EXTT4=
EXTT5=
EXTT6=
EXTT7=
EXTT8=
EXTT9=
EXTT10=
EXTT11=
EXTT12=
EXTT13=
EXTT14=
EXTT15=
PLAYORDER=
